<?xml version="1.0" ?><!DOCTYPE svg  PUBLIC '-//W3C//DTD SVG 1.1//EN'  'http://www.w3.org/Graphics/SVG/1.1/DTD/svg11.dtd'><svg height="6.82666in" style="shape-rendering:geometricPrecision; text-rendering:geometricPrecision; image-rendering:optimizeQuality; fill-rule:evenodd; clip-rule:evenodd" viewBox="0 0 6.82666 6.82666" width="6.82666in" xml:space="preserve" xmlns="http://www.w3.org/2000/svg" xmlns:xlink="http://www.w3.org/1999/xlink"><defs><style type="text/css">
   <![CDATA[
    .fil1 {fill:none}
    .fil0 {fill:#0A93E2;fill-rule:nonzero}
   ]]>
  </style></defs><g id="Layer_x0020_1"><path class="fil0" d="M3.62667 1.06666c0,-0.117819 -0.0955157,-0.213335 -0.213335,-0.213335 -0.117819,0 -0.213335,0.0955157 -0.213335,0.213335l0 4.69334c0,0.117819 0.0955157,0.213335 0.213335,0.213335 0.117819,0 0.213335,-0.0955157 0.213335,-0.213335l0 -4.69334z"/><path class="fil0" d="M2.03129 4.07629c-0.0833031,-0.0833031 -0.218366,-0.0833031 -0.301669,0 -0.0833031,0.0833031 -0.0833031,0.218366 0,0.301669l1.53288 1.53287 -1.5748e-005 1.5748e-005c0.083311,0.083311 0.21839,0.083311 0.301701,0l0.00122835 -0.00125984 1.53163 -1.53163c0.0833031,-0.0833031 0.0833031,-0.218366 0,-0.301669 -0.0833031,-0.0833031 -0.218366,-0.0833031 -0.301669,0l-1.38204 1.38204 -1.38204 -1.38204z"/></g><rect class="fil1" height="6.82666" width="6.82666"/></svg>